<svg id="Layer_1" data-name="Layer 1" xmlns="http://www.w3.org/2000/svg" viewBox="0 0 1910.49 1920.27"><defs><style>.cls-1{fill:#161f1d;}.cls-2{fill:#fff;}.cls-3{fill:#151e1d;}.cls-4{fill:#80b700;}.cls-5{fill:#7eb500;}.cls-6{fill:#7fb401;}.cls-7{fill:#121b1e;}.cls-8{fill:#67a307;}.cls-9{fill:#437a07;}.cls-10{fill:#0e181c;}.cls-11{fill:#f0f5f4;}.cls-12{fill:#1d251f;}.cls-13{fill:#171f1d;}.cls-14{fill:#1e2923;}.cls-15{fill:#46523b;}.cls-16{fill:#1f2e1a;}.cls-17{fill:#202a23;}.cls-18{fill:#223525;}.cls-19{fill:#142412;}.cls-20{fill:#1e2d1c;}</style></defs><path class="cls-1" d="M956.29,1920.27c-539.61.94-981.87-462.79-955.14-1011.82C24.8,422.71,454.07-22.24,1003.85.86c491.67,20.66,928.58,445.8,905.79,996C1889.5,1482.76,1493.53,1921.46,956.29,1920.27Z"/><path class="cls-2" d="M380,330c110.14-102.07,239.3-168.88,384.31-205.4C1218,10.33,1708.1,313.86,1795.48,796.84c59.09,326.61-44.28,601.22-293,820.42-102.66,90.47-221,152.32-355.52,179.76-102.82,21-205.33,26-305.79-15.41-152.23-62.8-242.52-203-231.14-356.14,13.78-185.41,194.74-311.48,374-269,3.76.89,7.58,1.49,12.82,2.51-81.94-77.07-240-109.59-373.13-48.26C475.82,1178.84,396,1336.16,421.35,1511.36c-73.73-117.51-60.21-336.61,139.27-464.18-133.91-2.5-355.2,177.71-288.85,424.52-37.79-52.35-67.66-103.18-92.63-157-97.56-210.15-101.21-424.8-30.8-643,1.16-3.6,3.47-6.83,5.24-10.23,20.87-5.07,40.24-16.62,63.59-10.07,11.35,3.18,18-8.48,23.22-16.81q27.25-43.77,53.21-88.34C305.13,526.55,319,508.77,333.05,491c5-6.34,10.35-15.38,20.82-6.88,4.24,12.92-5.63,20.46-11.59,29.15C301.24,573,262.83,634,239.76,703.55c-36.32,109.47-52.89,220.92-42,336.52,4.59,48.76,11.28,96.7,24.85,143.66,2.33,8.06,3.6,16.87,11.26,24.17,7.07-8.91,10-19.55,15.4-28.74,63.83-109.1,161.91-170.35,281.38-201.68,43.8-11.49,88.62-12.36,133.5-10.8,16.74.57,18.91-4.92,11.59-19.06-42-81-37-161.92,1.58-242.51,1.34-2.81,2.86-5.55,1.55-10.5-31.25-3.71-62.59-10-90.87-26.62-54-31.82-85.13-77.79-88.52-141.23-.37-6.92-2.78-15.78,4.78-19.17,8-3.57,13.06,4.5,16.36,10.09,38.19,64.79,126.8,76.76,198.08,30,32.92-21.6,61.7-48.74,98.88-71.47-20.09,0-36.62.52-53.1,0-95.58-3.27-168-42.6-205.17-134.49-7.23-17.88-15.82-16.33-28.16-7.58C478.5,371.46,427.09,410.19,385.4,460.29c-8.63,10.36-15.34,24.72-32.85,22.83-5.39-21.86,11.2-36.64,20.27-52.09,10.45-17.81,11.89-32.29,4.53-50.3C370.42,363.79,365.65,346.16,380,330Z"/><path class="cls-2" d="M380,330c-7.95,23.35,1.9,44.28,10.06,64.94,3.42,8.66,7.67,17.17,0,23.44-19,15.56-17.93,43-36.2,58.71-1.2,1-.31,4.47-.4,6.79v.06c-24.46,15.32-37.6,40-52.2,63.39q-31.53,50.52-62.48,101.39c-6.53,10.69-14,15.29-27.23,10.35-11.39-4.25-23.52-6.82-35,3.3-6.35,5.58-15.65,8.13-23-.84C177,580.14,225,512.1,273.15,444.56,303.56,401.91,337.28,361.52,380,330Z"/><path class="cls-3" d="M1390.64,839.22c-18.62,47.62-54.81,66.31-99,55.76-10.69-2.55-14.8-6-16.09-18-7-65.2-49.26-103.23-116.12-106-19.62-.8-39.61,1.81-58.88-1-40.5-5.79-70.21-29.21-91.87-65.33,36.89,22,76.63,22.3,121,17.56-28.83-15.15-53.17-31.29-72.49-53.83-19-22.14-31.42-48-42.88-75,29.76,23.89,64,37.61,99.82,48.51-43.74-32.83-76-82.57-136.75-90.08-24.45-3-48.44-3.17-77.22,3,37.7,12.08,52.2,42.9,73.25,67.1,4.82,5.54,5.13,9.92.73,16.33-64.19,93.55-16.81,205.15,79.59,254.88,39.94,20.61,82.22,34.79,125,48,73.59,22.66,142.52,54.17,198.15,109.33,23.22,23,19.14,41.4-11.42,55.6-10.21,4.75-21.09,6-32.82,5.14,26.07,33.43,55.31,35.29,93.79,6,5.41,10.49,12.48,20.33,15.58,31.28,3.47,12.27,21.58,22.88,8.35,37.26-14.69,16-33,26.59-56.36,24-4.47-.49-7.91-5.73-13-2.64,16.66,36.61,39.68,48.31,77.38,35.31,14.7-5.07,15.55-.13,15.8,11,.12,5.49.8,11,1.17,16.47,2.78,40.83-16.75,56.44-57.41,45.32-8.63-2.36-16.7-6.78-25.25-10.35,7.14,50.28,19.22,59.94,80.52,64-1.6,9.35-1.68,19.22-5.12,27.73-5.42,13.45,2,35-18.6,39.05-24.1,4.75-47.07-.2-64-20.65-2.45-3-4.39-6.36-6.67-9.72-23.11,45.85.57,79,58.3,80.56-6.11,25.37-22.61,44.11-37.75,63.71-7.1,9.18-14.91,9.15-24.73,4.68-24.58-11.21-39.62-30-45.16-57.77-28.93,44.43-38.61,49.61,20.77,103.66-9.08,7.66-17.83,15.52-27.06,22.76-32.06,25.11-56.14,18.89-73.5-19.19-3.19-7-4.45-14.87-6.91-23.44-5.36,6.15-10,12.3-15.51,17.62-25.74,25-27.66,30.14-4.44,58,15.26,18.28,8.09,23.69-9.25,29-12.74,3.89-25.22,8.69-38,12.54-28.91,8.72-35.35,4.73-40.53-25.5-1.43-8.32-1.22-16.91-1.79-26-9.31,11.38-22.27,17.38-33.4,25.8-10.28,7.8-23.78,13.39-19.23,31.21,2.21,8.64-6.73,9.51-12.2,9.95-134.16,10.64-293.36-45-334.85-206.12-15.81-61.39-2.56-118.38,44.74-164.79,13.68-13.43,20.63-11.79,31.7,3.89,53.5,75.72,124.75,118.76,220.23,110.55,126.42-10.86,194.53-136.66,135.88-249.51-31.6-60.81-84.35-98.19-143.7-127.7-32.31-16.06-66.32-28.9-97.84-46.31-95.42-52.74-140.13-116-160.5-224.47-19.74,17.9-26.54,42.13-41.79,69.17-3.07-86,7.74-161.6,56.65-231.38-40,5.85-75.88,1.15-111.13-9.58-1-4.36,2.1-4.86,5.06-5.28,39.39-5.48,73.06-22.82,102.66-49,29-25.59,59.61-48.48,95.85-63.41,64.56-26.61,127.15-23.07,188.32,10,12.23,6.61,24.18,13.74,38.62,18.6-3.73-4-7-8.54-11.25-12C1025.31,484.78,965.49,431,884.79,410.13c-35-9.05-70.18-6.85-105.43-8-65.63-2.18-110.6-37-143.09-91.7,54.79,45.17,118.19,56.71,186.82,51,70.66-5.84,131.76,20.49,193,64-23.82-51.45-41.59-98.85-44.27-153.35,35.39,77.4,82.64,143.29,142.52,199.78,43.07,40.63,88.3,77.81,148.74,91,30,6.53,45.34,26.89,49.26,58.36,6.09,48.83,45.82,76,94.13,67.26,47.27-8.59,77.88,32.53,61.49,82.7-5.23,16-14.87,29.16-26.78,40.87-1.6-.9-3.55-1.33-3.78-2.22-8.14-30.29-8.1-30.26-35.77-18.6q-9.76,4.11-19.73,7.72c-8.81,3.19-17.71,6.14-31,10.71,5.59-25.24-1.46-44.19-20.74-58.53-24.1-17.94-50-29-80.7-27.47-16,.81-32.11.14-49.3,4.74,17.65,11.1,35.55,21.83,52.89,33.41,17,11.34,34.2,22.53,49.81,35.58C1328.52,818.85,1349.67,847.78,1390.64,839.22Z"/><path class="cls-4" d="M353.49,483.87c44.91-51.66,92.59-100.34,149.63-138.95,2.6-1.76,5-3.88,7.59-5.59,13.17-8.52,26.34-23.7,39.61-23.81,18.5-.14,14.22,23.87,20.43,36.72,37.24,77,101.79,110.31,183.09,116.89,26.28,2.13,52.88.33,80.35,2.81-56,32.63-97.18,86.82-162.11,105.37-64.25,18.35-119.83-1-158.23-56.34-2.19-3.16-4.55-6.19-7.56-10.28.16,104.44,68.19,168.65,188.32,176.65-53.68,94.89-54.72,189.71,3.7,288.39-100.58-9.21-192.28,4.32-277.28,51-84.32,46.26-151.31,108.71-187.07,205.71-19.37-39.39-28.5-76.88-34.7-115.08-27.82-171.36-9.6-336.71,66.5-494.06,24-49.65,57.05-93.78,87.73-139.32Z"/><path class="cls-5" d="M1517.08,1496.06c92.3-218.21,23.66-429.39-137.44-544.84,24.24-10,50.32-23.4,56.07-47.32,7.25-30.14,25.47-40.19,49.31-53.37,42.38-23.43,54.21-66.46,51-111.58-2.94-41.89-23.26-76.24-60.81-98.13-15.74-9.18-33.87-10.7-50.46-6.52-24.94,6.27-36.41-7.25-46.47-25.33a96.85,96.85,0,0,1-7.28-17.39c-15.88-49.16-49.56-76.77-100.49-84.24-7.6-1.11-15.93-3-22.13-7.18-94.49-63.68-176.73-138.92-225.73-244.54-7.87-17-23.69-40-14.41-52,10.42-13.47,36.78-4.82,55.79-2,213.6,31.6,381.58,140,509.64,310.58C1712.49,697,1755,904.3,1705.42,1130.06c-25.79,117.49-72.34,225.74-147.59,320.52C1545.19,1466.49,1530.71,1480.94,1517.08,1496.06Z"/><path class="cls-6" d="M656.07,259c58.49-29.07,117.44-44.39,178-53.85,25.55-4,51.47-5.51,77.23-8.15,11.43-1.17,18.3-.09,12.23,14.79-14.75,36.17-16.38,73.1-3.26,110.39,2.39,6.79,7.11,18-8,13.71-50.22-14.15-102.92-11.25-153.43-23.3C721.45,303.63,689.24,285.42,656.07,259Z"/><path class="cls-7" d="M1101.75,1280.42c-49.75,69.26-105.93,124.81-199.17,107.9C928.87,1304.55,977.34,1271.53,1101.75,1280.42Z"/><path class="cls-8" d="M856.59,1343.09c-12.7-31.72,3.16-56.82,22-78.39,38.14-43.59,107.92-49.33,166.08-12.81-43.88-5-76,12.71-107.44,32.36C903.55,1294.5,881.69,1321,856.59,1343.09Z"/><path class="cls-9" d="M856.59,1343.09c11.8-31.27,48.47-58,80.67-58.84C909,1312.81,891.69,1347,884.36,1388,870,1375.42,859.31,1361.83,856.59,1343.09Z"/><path class="cls-10" d="M809.93,1250.1c17.92,17.56,34.11,32.08,25.3,59.25-4.82,14.86,2.47,30.51,7.92,46.68C806,1327.21,796.63,1297.49,809.93,1250.1Z"/><path class="cls-11" d="M1217.19,613.87c20.72,4.75,35.11,8,49.44,11.39,6.95,1.66,13.83,4.06,16.61,11.49,1.86,5,4.91,11.12,3.45,15.39-2.38,7-9.4,1.84-14.36,1.9C1246.32,654.4,1236.05,633.2,1217.19,613.87Z"/><path class="cls-12" d="M343.11,892.67C343,909.91,329,925,312.63,925.42c-18.7.54-32.09-13.69-31.35-33.31.69-18.2,14.23-31.84,31.22-31.45C329.9,861.06,343.28,875.06,343.11,892.67Z"/><path class="cls-13" d="M378.82,704.33c15.82.26,29.72,14.72,29.38,30.56-.37,16.91-15.14,30.42-33.07,29.47s-27.06-11-27.3-28.71A30.5,30.5,0,0,1,378.82,704.33Z"/><path class="cls-14" d="M438.68,875.07c-.52,21.44-13,27.5-30.89,28.34-19.89.93-26.8-10.63-26.43-27.61s9.8-28.68,27.6-28.42S438.44,856.67,438.68,875.07Z"/><path class="cls-15" d="M479.94,799.11c.33,16.21-9,25.72-23.54,26.86s-23-9.36-23.75-23.35c-.84-15.37,7.25-25.92,23.29-26.1C469.93,776.37,479.59,783.47,479.94,799.11Z"/><path class="cls-16" d="M329.3,837c-15.67-1.52-27.81-5.75-27.78-23.24,0-15.58,9.69-22.84,24-22.49,13.42.33,25,5.84,25.67,21.54C351.88,828.16,342,834.78,329.3,837Z"/><path class="cls-17" d="M1640.42,945.63c-2.11,15.8-8.27,28.49-27.15,29.08-16.18.51-25-8.53-26.59-23.92s13.73-32.72,28.3-31.77C1630.55,920,1638.61,929.76,1640.42,945.63Z"/><path class="cls-18" d="M1594.81,1019.29c-.45,12.31-9.1,21.76-26,21.62-16.07-.13-24.89-10.49-24.78-25.37.11-16,9.81-26.82,26.61-26.4C1585.92,989.51,1595,998.4,1594.81,1019.29Z"/><path class="cls-19" d="M1518.53,972.58c-1.49,14.28-9.2,23.82-23.68,23.71-15.45-.11-24.56-9.43-23.79-25.54.72-15.16,10.92-22.75,24.71-22.51C1510,948.5,1518.36,957.32,1518.53,972.58Z"/><path class="cls-20" d="M1512.72,903.81c.62-13.12,7.14-20.48,20.52-20.34,14,.15,22.19,7.76,22.18,21.71s-8.2,22-22.16,21.71C1519,926.58,1512.61,917.7,1512.72,903.81Z"/></svg>